<?xml version="1.0" encoding="utf-8"?>
<svg xmlns="http://www.w3.org/2000/svg" viewBox="-50 -50 400 400" style="" xmlns:bx="https://boxy-svg.com" width="400px" height="400px"><defs><bx:export><bx:file format="svg"/></bx:export></defs><ellipse style="stroke: rgba(0, 0, 0, 0); fill: rgb(255, 255, 255);" cx="150" cy="150" rx="200" ry="200"/><rect x="249.566" y="365.06" width="0.869" height="0.869" rx="30" ry="30" style="fill: rgb(216, 216, 216); stroke: rgb(0, 0, 0);"/><rect style="stroke: rgba(0, 0, 0, 0); fill: rgb(201, 64, 59);" x="45" y="15" width="50" height="270" rx="25" ry="25"/><rect style="stroke: rgba(0, 0, 0, 0); fill: rgb(95, 112, 242);" x="205" y="15" width="50" height="270" rx="25" ry="25"/><rect style="stroke: rgba(0, 0, 0, 0); fill: rgb(95, 112, 242); transform-origin: 338.922px 126.792px 0px;" x="313.92" y="51.793" width="50.004" height="150" rx="25.002" ry="25.002" transform="matrix(0.842446, -0.538781, 0.538781, 0.842446, -136.317485, 93.037629)"/><rect style="stroke: rgba(0, 0, 0, 0); fill: rgb(201, 64, 59); transform-origin: 339.061px 126.792px 0px;" x="314.049" y="51.793" width="50.024" height="150" rx="25.012" ry="25.012" transform="matrix(0.842446, -0.538781, 0.538781, 0.842446, -239.381745, -45.725855)"/><ellipse style="stroke: rgba(0, 0, 0, 0); fill: rgb(95, 112, 242);" cx="168" cy="170" rx="30" ry="30"/><ellipse style="stroke: rgba(0, 0, 0, 0); fill: rgb(201, 64, 59);" cx="131" cy="122" rx="30" ry="30"/><ellipse style="fill: rgb(255, 255, 255); stroke: rgba(0, 0, 0, 0);" cx="131" cy="121" rx="15" ry="15"/><ellipse style="fill: rgb(255, 255, 255); stroke: rgba(0, 0, 0, 0);" cx="168" cy="170" rx="15" ry="15"/></svg>